<mxfile host="app.diagrams.net" modified="2022-11-04T06:59:30.029Z" agent="5.0 (Windows NT 10.0; Win64; x64) AppleWebKit/537.36 (KHTML, like Gecko) Chrome/106.0.0.0 Safari/537.36 Edg/106.0.1370.52" etag="oyIF0o3bK8tRBZ7B2331" version="20.4.0" type="github">
  <diagram id="g9LA6DK14ZpazoE-_L1j" name="第 1 页">
    <mxGraphModel dx="1626" dy="657" grid="1" gridSize="10" guides="1" tooltips="1" connect="1" arrows="1" fold="1" page="1" pageScale="1" pageWidth="900" pageHeight="1600" math="0" shadow="0">
      <root>
        <mxCell id="0" />
        <mxCell id="1" parent="0" />
        <mxCell id="-MSb4vBC7b3buUE4V8KC-12" style="edgeStyle=orthogonalEdgeStyle;rounded=0;orthogonalLoop=1;jettySize=auto;html=1;exitX=1;exitY=0.5;exitDx=0;exitDy=0;" edge="1" parent="1" source="-MSb4vBC7b3buUE4V8KC-4" target="-MSb4vBC7b3buUE4V8KC-11">
          <mxGeometry relative="1" as="geometry" />
        </mxCell>
        <mxCell id="-MSb4vBC7b3buUE4V8KC-23" style="edgeStyle=orthogonalEdgeStyle;rounded=0;orthogonalLoop=1;jettySize=auto;html=1;exitX=0;exitY=0;exitDx=0;exitDy=0;entryX=1.012;entryY=0.538;entryDx=0;entryDy=0;entryPerimeter=0;fontColor=#000000;" edge="1" parent="1" source="-MSb4vBC7b3buUE4V8KC-4" target="-MSb4vBC7b3buUE4V8KC-21">
          <mxGeometry relative="1" as="geometry" />
        </mxCell>
        <mxCell id="-MSb4vBC7b3buUE4V8KC-4" value="创建审批实例" style="rounded=1;whiteSpace=wrap;html=1;fillColor=#d5e8d4;strokeColor=#82b366;" vertex="1" parent="1">
          <mxGeometry x="-420" y="200" width="120" height="60" as="geometry" />
        </mxCell>
        <mxCell id="-MSb4vBC7b3buUE4V8KC-8" style="rounded=0;orthogonalLoop=1;jettySize=auto;html=1;exitX=1;exitY=0.5;exitDx=0;exitDy=0;entryX=0;entryY=0.5;entryDx=0;entryDy=0;edgeStyle=orthogonalEdgeStyle;" edge="1" parent="1" source="-MSb4vBC7b3buUE4V8KC-5" target="-MSb4vBC7b3buUE4V8KC-4">
          <mxGeometry relative="1" as="geometry" />
        </mxCell>
        <mxCell id="-MSb4vBC7b3buUE4V8KC-9" style="edgeStyle=orthogonalEdgeStyle;rounded=0;orthogonalLoop=1;jettySize=auto;html=1;exitX=1;exitY=0.5;exitDx=0;exitDy=0;" edge="1" parent="1" source="-MSb4vBC7b3buUE4V8KC-5" target="-MSb4vBC7b3buUE4V8KC-7">
          <mxGeometry relative="1" as="geometry" />
        </mxCell>
        <mxCell id="-MSb4vBC7b3buUE4V8KC-10" style="edgeStyle=orthogonalEdgeStyle;rounded=0;orthogonalLoop=1;jettySize=auto;html=1;exitX=1;exitY=0.5;exitDx=0;exitDy=0;entryX=0;entryY=0.5;entryDx=0;entryDy=0;" edge="1" parent="1" source="-MSb4vBC7b3buUE4V8KC-5" target="-MSb4vBC7b3buUE4V8KC-6">
          <mxGeometry relative="1" as="geometry" />
        </mxCell>
        <mxCell id="-MSb4vBC7b3buUE4V8KC-5" value="审批后台创建审批定义" style="rounded=1;whiteSpace=wrap;html=1;fillColor=#d5e8d4;strokeColor=#82b366;" vertex="1" parent="1">
          <mxGeometry x="-580" y="290" width="120" height="60" as="geometry" />
        </mxCell>
        <mxCell id="-MSb4vBC7b3buUE4V8KC-6" value="订阅审批定义" style="rounded=1;whiteSpace=wrap;html=1;fillColor=#d5e8d4;strokeColor=#82b366;" vertex="1" parent="1">
          <mxGeometry x="-420" y="370" width="120" height="60" as="geometry" />
        </mxCell>
        <mxCell id="-MSb4vBC7b3buUE4V8KC-7" value="查看审批定义" style="rounded=1;whiteSpace=wrap;html=1;fillColor=#d5e8d4;strokeColor=#82b366;" vertex="1" parent="1">
          <mxGeometry x="-420" y="290" width="120" height="60" as="geometry" />
        </mxCell>
        <mxCell id="-MSb4vBC7b3buUE4V8KC-14" style="edgeStyle=orthogonalEdgeStyle;rounded=0;orthogonalLoop=1;jettySize=auto;html=1;exitX=0.5;exitY=1;exitDx=0;exitDy=0;entryX=1;entryY=0.5;entryDx=0;entryDy=0;" edge="1" parent="1" source="-MSb4vBC7b3buUE4V8KC-11" target="-MSb4vBC7b3buUE4V8KC-13">
          <mxGeometry relative="1" as="geometry" />
        </mxCell>
        <mxCell id="-MSb4vBC7b3buUE4V8KC-11" value="审批操作" style="rounded=1;whiteSpace=wrap;html=1;fillColor=#d5e8d4;strokeColor=#82b366;" vertex="1" parent="1">
          <mxGeometry x="-240" y="200" width="120" height="60" as="geometry" />
        </mxCell>
        <mxCell id="-MSb4vBC7b3buUE4V8KC-15" style="edgeStyle=orthogonalEdgeStyle;rounded=0;orthogonalLoop=1;jettySize=auto;html=1;exitX=0.5;exitY=0;exitDx=0;exitDy=0;entryX=0.5;entryY=1;entryDx=0;entryDy=0;" edge="1" parent="1" source="-MSb4vBC7b3buUE4V8KC-13" target="-MSb4vBC7b3buUE4V8KC-6">
          <mxGeometry relative="1" as="geometry" />
        </mxCell>
        <mxCell id="-MSb4vBC7b3buUE4V8KC-13" value="消息接收网址" style="rounded=1;whiteSpace=wrap;html=1;fillColor=#d5e8d4;strokeColor=#82b366;" vertex="1" parent="1">
          <mxGeometry x="-420" y="470" width="120" height="60" as="geometry" />
        </mxCell>
        <mxCell id="-MSb4vBC7b3buUE4V8KC-16" style="edgeStyle=orthogonalEdgeStyle;rounded=0;orthogonalLoop=1;jettySize=auto;html=1;exitX=0.5;exitY=1;exitDx=0;exitDy=0;entryX=0;entryY=0.5;entryDx=0;entryDy=0;" edge="1" parent="1" source="-MSb4vBC7b3buUE4V8KC-11" target="-MSb4vBC7b3buUE4V8KC-11">
          <mxGeometry relative="1" as="geometry">
            <mxPoint x="-260" y="230" as="targetPoint" />
            <Array as="points">
              <mxPoint x="-180" y="500" />
              <mxPoint x="-260" y="500" />
              <mxPoint x="-260" y="230" />
            </Array>
          </mxGeometry>
        </mxCell>
        <mxCell id="-MSb4vBC7b3buUE4V8KC-17" value="&lt;b&gt;飞书审批流程&lt;/b&gt;" style="rounded=1;whiteSpace=wrap;html=1;strokeWidth=2;fillWeight=4;hachureGap=8;hachureAngle=45;fillColor=#d5e8d4;sketch=1;strokeColor=#82b366;" vertex="1" parent="1">
          <mxGeometry x="-420" y="120" width="120" height="60" as="geometry" />
        </mxCell>
        <mxCell id="-MSb4vBC7b3buUE4V8KC-19" value="由添加应用的企业创建审批定义接口船舰成功后，无法停用/删除。&lt;br&gt;&lt;font style=&quot;&quot; color=&quot;#ff3333&quot;&gt;系统是否需要提供创建审批定义的页面？&lt;/font&gt;" style="shape=note;whiteSpace=wrap;html=1;backgroundOutline=1;darkOpacity=0.05;fillColor=#ffe6cc;strokeColor=#d79b00;" vertex="1" parent="1">
          <mxGeometry x="-580" y="360" width="100" height="130" as="geometry" />
        </mxCell>
        <mxCell id="-MSb4vBC7b3buUE4V8KC-21" value="&lt;span style=&quot;font-family: &amp;quot;Helvetica Neue&amp;quot;, Helvetica, &amp;quot;PingFang SC&amp;quot;, &amp;quot;Microsoft YaHei&amp;quot;, Tahoma, Arial, -apple-system, BlinkMacSystemFont, &amp;quot;Segoe UI&amp;quot;, Roboto, &amp;quot;Noto Sans&amp;quot;, sans-serif, &amp;quot;Apple Color Emoji&amp;quot;, &amp;quot;Segoe UI Emoji&amp;quot;, &amp;quot;Segoe UI Symbol&amp;quot;, &amp;quot;Noto Color Emoji&amp;quot;; font-size: 14px; text-align: start;&quot;&gt;第三方企业tenant_access_token，&lt;br&gt;审批定义code&lt;br&gt;&lt;/span&gt;&lt;span style=&quot;color: rgb(55, 60, 67); font-family: &amp;quot;Helvetica Neue&amp;quot;, Helvetica, &amp;quot;PingFang SC&amp;quot;, &amp;quot;Microsoft YaHei&amp;quot;, Tahoma, Arial, -apple-system, BlinkMacSystemFont, &amp;quot;Segoe UI&amp;quot;, Roboto, &amp;quot;Noto Sans&amp;quot;, sans-serif, &amp;quot;Apple Color Emoji&amp;quot;, &amp;quot;Segoe UI Emoji&amp;quot;, &amp;quot;Segoe UI Symbol&amp;quot;, &amp;quot;Noto Color Emoji&amp;quot;; font-size: 14px; text-align: left; background-color: rgb(255, 255, 255);&quot;&gt;approval_code&lt;/span&gt;&lt;span style=&quot;font-family: &amp;quot;Helvetica Neue&amp;quot;, Helvetica, &amp;quot;PingFang SC&amp;quot;, &amp;quot;Microsoft YaHei&amp;quot;, Tahoma, Arial, -apple-system, BlinkMacSystemFont, &amp;quot;Segoe UI&amp;quot;, Roboto, &amp;quot;Noto Sans&amp;quot;, sans-serif, &amp;quot;Apple Color Emoji&amp;quot;, &amp;quot;Segoe UI Emoji&amp;quot;, &amp;quot;Segoe UI Symbol&amp;quot;, &amp;quot;Noto Color Emoji&amp;quot;; font-size: 14px; text-align: start;&quot;&gt;&lt;br&gt;&lt;/span&gt;" style="shape=note;whiteSpace=wrap;html=1;backgroundOutline=1;darkOpacity=0.05;fillColor=#ffe6cc;strokeColor=#d79b00;" vertex="1" parent="1">
          <mxGeometry x="-630" y="160" width="170" height="80" as="geometry" />
        </mxCell>
      </root>
    </mxGraphModel>
  </diagram>
</mxfile>
